<?xml version="1.0" standalone="no"?>
<!DOCTYPE svg PUBLIC "-//W3C//DTD SVG 20010904//EN"
 "http://www.w3.org/TR/2001/REC-SVG-20010904/DTD/svg10.dtd">
<svg version="1.0" xmlns="http://www.w3.org/2000/svg"
 width="720.000000pt" height="720.000000pt" viewBox="0 0 720.000000 720.000000"
 preserveAspectRatio="xMidYMid meet">
<metadata>
Created by potrace 1.14, written by Peter Selinger 2001-2017
</metadata>
<g transform="translate(0.000000,720.000000) scale(0.100000,-0.100000)"
fill="#000000" stroke="none">
<path d="M3544 6835 c-8 -20 -72 -56 -79 -44 -8 12 -62 12 -69 0 -3 -5 -14 -7
-25 -4 -10 2 -34 0 -52 -5 -20 -5 -45 -5 -61 0 -20 7 -36 4 -68 -12 -22 -11
-45 -18 -50 -15 -12 7 -79 -14 -101 -32 -21 -17 -39 -16 -39 2 0 21 -11 19
-43 -11 -15 -14 -44 -28 -63 -31 -23 -4 -31 -9 -23 -14 16 -10 -29 -29 -69
-29 -15 -1 -40 -7 -57 -14 -21 -9 -40 -10 -63 -4 -28 8 -36 6 -47 -9 -7 -10
-11 -21 -8 -26 7 -11 -17 -38 -28 -31 -5 3 -8 0 -7 -6 3 -14 -54 -38 -90 -39
-13 -1 -34 -12 -47 -25 -16 -16 -31 -23 -45 -19 -20 5 -21 3 -15 -29 5 -28 3
-39 -12 -49 -10 -8 -23 -23 -29 -34 -6 -11 -15 -20 -20 -20 -5 0 -19 -10 -31
-22 -13 -13 -28 -21 -35 -18 -19 7 -51 -22 -45 -39 3 -8 -5 -26 -20 -40 -14
-14 -22 -26 -17 -26 5 0 2 -5 -6 -10 -8 -5 -25 -7 -36 -4 -25 7 -43 -13 -20
-22 10 -4 14 -15 12 -30 -7 -37 -16 -46 -41 -40 -27 7 -42 -9 -39 -42 1 -17
-6 -24 -30 -30 -22 -6 -32 -15 -34 -33 -4 -25 -16 -43 -32 -45 -6 -1 -14 -2
-20 -3 -5 0 -10 -11 -10 -23 0 -41 -27 -103 -43 -100 -9 1 -18 -2 -22 -8 -3
-5 -3 -10 2 -10 27 -1 33 -17 18 -47 -9 -17 -22 -36 -30 -43 -9 -7 -15 -29
-15 -53 0 -28 -6 -45 -22 -59 -19 -16 -20 -22 -10 -39 22 -34 5 -85 -39 -120
-42 -33 -47 -52 -24 -87 12 -16 13 -26 5 -42 -12 -22 2 -60 21 -60 6 0 6 -6 0
-18 -5 -9 -7 -60 -5 -112 2 -52 4 -124 5 -160 2 -79 15 -139 36 -162 9 -10 12
-18 6 -18 -30 0 61 -410 116 -518 11 -23 21 -48 21 -57 0 -8 4 -15 8 -15 9 0
32 -44 32 -60 0 -4 -8 -7 -17 -5 -118 22 -195 27 -238 15 -59 -17 -72 -40 -90
-161 -7 -42 11 -239 24 -272 5 -12 20 -60 32 -107 31 -114 76 -203 139 -274
28 -33 62 -75 75 -95 25 -40 98 -111 132 -129 12 -7 37 -12 55 -12 30 0 35 -5
52 -42 20 -47 45 -137 48 -174 1 -13 6 -24 10 -24 4 0 8 -10 8 -22 0 -25 22
-93 33 -104 4 -4 7 -16 7 -26 0 -11 23 -67 51 -125 57 -118 67 -164 63 -290
-3 -115 -14 -296 -19 -303 -2 -3 -6 -44 -10 -90 -3 -47 -10 -110 -16 -140
l-11 -55 -46 0 c-27 0 -67 -10 -92 -22 -25 -11 -67 -23 -95 -26 -27 -3 -63
-11 -80 -17 -16 -6 -30 -11 -30 -10 0 7 -202 -103 -219 -119 -12 -12 -90 -54
-172 -95 -83 -41 -175 -89 -205 -107 -110 -65 -156 -87 -239 -114 -76 -24
-161 -59 -243 -101 -16 -8 -35 -14 -43 -14 -8 0 -14 -4 -14 -10 0 -5 -7 -10
-16 -10 -16 0 -72 -24 -159 -67 -27 -14 -59 -27 -70 -29 -11 -2 -21 -8 -23
-14 -2 -5 -36 -36 -76 -68 -64 -52 -88 -64 -202 -101 -71 -23 -166 -61 -211
-83 l-83 -42 0 -318 0 -318 3600 0 3600 0 0 253 c0 251 0 252 -22 266 -13 8
-25 14 -28 14 -5 0 -120 52 -191 86 -24 12 -54 21 -67 21 -13 0 -66 20 -118
45 -51 25 -98 45 -104 45 -5 0 -10 5 -10 10 0 6 -5 10 -11 10 -6 0 -79 33
-162 74 -195 95 -224 107 -271 112 -22 2 -65 11 -95 20 -31 8 -64 17 -73 19
-9 2 -27 9 -40 16 -20 11 -21 10 -11 -3 7 -8 10 -18 6 -21 -12 -13 -32 -7 -62
18 -38 32 -129 61 -144 46 -8 -8 -5 -15 9 -25 31 -23 5 -41 -32 -21 -16 8 -32
15 -35 15 -3 0 -38 18 -77 39 -39 21 -74 36 -77 32 -4 -3 -12 1 -18 9 -15 20
-82 61 -89 55 -2 -3 -30 20 -61 50 -32 31 -82 67 -114 81 -32 15 -68 35 -80
46 -14 13 -31 19 -46 16 -21 -4 -47 11 -47 28 0 4 -7 12 -16 18 -13 10 -20 28
-23 59 -1 4 -7 7 -14 7 -7 0 -32 16 -54 35 -23 19 -45 35 -51 35 -5 0 -21 9
-36 21 -15 11 -34 22 -44 24 -9 2 -17 4 -17 5 0 1 -10 3 -23 6 -35 6 -69 33
-76 58 -3 12 -8 177 -12 365 -5 273 -3 342 7 336 8 -5 10 -4 5 3 -7 12 20 61
40 74 7 4 15 19 18 33 4 14 21 49 40 78 68 108 110 195 121 255 2 9 4 17 5 17
3 0 10 48 14 90 3 22 7 51 10 65 3 14 13 63 22 110 10 52 24 93 35 105 19 19
19 19 19 -17 l0 -36 51 26 c29 15 63 33 76 40 32 18 103 86 103 100 0 6 9 13
20 17 11 3 19 9 18 13 -2 7 50 93 61 102 4 3 18 28 31 57 13 28 29 51 35 50 5
-1 9 4 7 12 -5 22 19 82 29 75 6 -3 9 0 8 7 -2 8 7 46 20 84 56 176 45 411
-23 474 -37 35 -173 47 -304 25 -22 -3 -34 -1 -38 9 -3 8 15 56 40 108 77 160
146 450 146 612 0 47 6 82 20 113 19 40 19 46 5 60 -8 9 -15 28 -15 44 0 16
-4 31 -8 34 -4 3 -7 51 -7 108 1 57 -2 108 -7 115 -6 8 -5 25 3 48 11 30 11
37 -1 45 -11 7 -11 11 -1 24 11 13 11 16 0 16 -11 0 -11 2 0 9 12 8 11 13 -9
29 l-23 19 31 23 c18 13 32 28 32 32 0 9 -18 0 -56 -28 -21 -15 -22 -14 -17
29 3 27 1 47 -6 51 -8 5 -7 16 4 36 20 38 19 41 -7 35 -17 -4 -28 2 -42 22
-17 22 -18 33 -9 74 11 55 4 74 -32 83 -15 4 -27 16 -31 31 -3 13 -15 27 -25
30 -10 4 -19 15 -19 25 0 10 -8 25 -18 32 -10 7 -21 27 -25 44 -8 42 -70 108
-96 101 -14 -3 -21 1 -25 17 -7 26 -68 96 -84 96 -7 0 -12 7 -12 15 0 7 -6 18
-12 22 -7 4 -18 17 -24 28 -6 11 -25 27 -42 35 -17 8 -41 27 -54 43 -13 15
-33 27 -45 27 -12 0 -24 4 -27 9 -3 5 -15 7 -26 4 -13 -3 -20 0 -20 8 0 8 -36
34 -80 58 -44 25 -80 47 -80 51 0 3 -9 16 -20 27 -17 19 -24 20 -60 11 -47
-12 -48 -12 -65 39 -15 44 -37 51 -160 57 -61 3 -104 11 -177 32 -11 3 -15 11
-11 22 5 13 0 12 -19 -6 -13 -12 -27 -20 -30 -16 -3 3 -24 5 -46 6 -26 0 -48
7 -62 20 -17 16 -26 18 -48 10 -22 -7 -36 -5 -63 9 -46 24 -62 23 -97 -6 -17
-14 -33 -25 -37 -25 -15 0 -35 30 -29 44 3 9 1 16 -5 16 -7 0 -14 -7 -17 -15z"/>
<path d="M5324 1317 c10 -7 34 -24 53 -39 41 -32 52 -35 49 -11 -2 9 -21 23
-43 32 -23 9 -45 19 -49 24 -4 4 -12 7 -18 6 -6 0 -3 -6 8 -12z"/>
<path d="M5553 1217 c15 -13 27 -33 27 -45 0 -11 9 -26 19 -32 11 -5 22 -18
25 -27 4 -12 18 -19 41 -20 27 -2 33 0 29 12 -4 8 -10 12 -15 9 -5 -3 -18 -2
-30 1 -14 5 -18 12 -14 26 5 15 -2 28 -27 49 -18 16 -39 30 -45 30 -7 0 -13 5
-13 10 0 6 -6 10 -12 10 -7 -1 -1 -11 15 -23z"/>
</g>
</svg>
